<svg xmlns="http://www.w3.org/2000/svg" viewBox="0 0 900 600" font-family="Arial, sans-serif">
  <defs>
    <linearGradient id="headerGrad" x1="0%" y1="0%" x2="100%" y2="0%">
      <stop offset="0%" style="stop-color:#29B5E8;stop-opacity:1" />
      <stop offset="100%" style="stop-color:#1B9CD9;stop-opacity:1" />
    </linearGradient>
    <linearGradient id="agentGrad" x1="0%" y1="0%" x2="0%" y2="100%">
      <stop offset="0%" style="stop-color:#667EEA;stop-opacity:1" />
      <stop offset="100%" style="stop-color:#764BA2;stop-opacity:1" />
    </linearGradient>
  </defs>

  <rect width="900" height="600" fill="#F8FAFC" rx="8"/>

  <rect x="20" y="10" width="860" height="50" fill="url(#headerGrad)" rx="6"/>
  <text x="450" y="42" text-anchor="middle" fill="white" font-size="20" font-weight="bold">Realty Income REIT Advisor - Architecture</text>

  <rect x="300" y="75" width="300" height="45" fill="url(#agentGrad)" rx="6"/>
  <text x="450" y="103" text-anchor="middle" fill="white" font-size="14" font-weight="bold">CORTEX AGENT: REIT_ADVISOR</text>

  <rect x="40" y="145" width="180" height="55" fill="#E8F5E9" stroke="#4CAF50" stroke-width="2" rx="4"/>
  <text x="130" y="168" text-anchor="middle" font-size="11" font-weight="bold" fill="#2E7D32">Portfolio Analytics</text>
  <text x="130" y="185" text-anchor="middle" font-size="9" fill="#555">(Text-to-SQL)</text>

  <rect x="250" y="145" width="180" height="55" fill="#E3F2FD" stroke="#2196F3" stroke-width="2" rx="4"/>
  <text x="340" y="168" text-anchor="middle" font-size="11" font-weight="bold" fill="#1565C0">Market Performance</text>
  <text x="340" y="185" text-anchor="middle" font-size="9" fill="#555">(Text-to-SQL)</text>

  <rect x="460" y="145" width="180" height="55" fill="#FFF3E0" stroke="#FF9800" stroke-width="2" rx="4"/>
  <text x="550" y="168" text-anchor="middle" font-size="11" font-weight="bold" fill="#E65100">Document Search</text>
  <text x="550" y="185" text-anchor="middle" font-size="9" fill="#555">(Cortex Search RAG)</text>

  <rect x="670" y="145" width="180" height="55" fill="#F3E5F5" stroke="#9C27B0" stroke-width="2" rx="4"/>
  <text x="760" y="168" text-anchor="middle" font-size="11" font-weight="bold" fill="#6A1B9A">Data to Chart</text>
  <text x="760" y="185" text-anchor="middle" font-size="9" fill="#555">(Visualization)</text>

  <line x1="450" y1="120" x2="130" y2="145" stroke="#666" stroke-width="1.5" stroke-dasharray="4"/>
  <line x1="450" y1="120" x2="340" y2="145" stroke="#666" stroke-width="1.5" stroke-dasharray="4"/>
  <line x1="450" y1="120" x2="550" y2="145" stroke="#666" stroke-width="1.5" stroke-dasharray="4"/>
  <line x1="450" y1="120" x2="760" y2="145" stroke="#666" stroke-width="1.5" stroke-dasharray="4"/>

  <rect x="40" y="225" width="180" height="45" fill="#E8F5E9" stroke="#81C784" stroke-width="1.5" rx="4"/>
  <text x="130" y="248" text-anchor="middle" font-size="10" fill="#2E7D32">REIT_PORTFOLIO_ANALYSIS</text>
  <text x="130" y="262" text-anchor="middle" font-size="9" fill="#555">Semantic View</text>

  <rect x="250" y="225" width="180" height="45" fill="#E3F2FD" stroke="#64B5F6" stroke-width="1.5" rx="4"/>
  <text x="340" y="248" text-anchor="middle" font-size="10" fill="#1565C0">REIT_MARKET_PERFORMANCE</text>
  <text x="340" y="262" text-anchor="middle" font-size="9" fill="#555">Semantic View</text>

  <rect x="460" y="225" width="180" height="45" fill="#FFF3E0" stroke="#FFB74D" stroke-width="1.5" rx="4"/>
  <text x="550" y="248" text-anchor="middle" font-size="10" fill="#E65100">REIT_DOCUMENT_SEARCH</text>
  <text x="550" y="262" text-anchor="middle" font-size="9" fill="#555">Cortex Search Service</text>

  <line x1="130" y1="200" x2="130" y2="225" stroke="#4CAF50" stroke-width="1.5"/>
  <line x1="340" y1="200" x2="340" y2="225" stroke="#2196F3" stroke-width="1.5"/>
  <line x1="550" y1="200" x2="550" y2="225" stroke="#FF9800" stroke-width="1.5"/>

  <rect x="30" y="295" width="620" height="140" fill="#FAFAFA" stroke="#E0E0E0" stroke-width="1.5" rx="4"/>
  <text x="340" y="315" text-anchor="middle" font-size="12" font-weight="bold" fill="#333">RAW DATA TABLES</text>

  <rect x="45" y="325" width="105" height="30" fill="#FFF" stroke="#BDBDBD" rx="3"/>
  <text x="97" y="344" text-anchor="middle" font-size="9">PROPERTIES</text>

  <rect x="160" y="325" width="85" height="30" fill="#FFF" stroke="#BDBDBD" rx="3"/>
  <text x="202" y="344" text-anchor="middle" font-size="9">TENANTS</text>

  <rect x="255" y="325" width="75" height="30" fill="#FFF" stroke="#BDBDBD" rx="3"/>
  <text x="292" y="344" text-anchor="middle" font-size="9">LEASES</text>

  <rect x="340" y="325" width="135" height="30" fill="#FFF" stroke="#BDBDBD" rx="3"/>
  <text x="407" y="344" text-anchor="middle" font-size="9">FINANCIAL_METRICS</text>

  <rect x="485" y="325" width="145" height="30" fill="#FFF" stroke="#BDBDBD" rx="3"/>
  <text x="557" y="344" text-anchor="middle" font-size="9">PORTFOLIO_SUMMARY</text>

  <rect x="45" y="365" width="105" height="30" fill="#FFF" stroke="#BDBDBD" rx="3"/>
  <text x="97" y="384" text-anchor="middle" font-size="9">MARKET_DATA</text>

  <rect x="160" y="365" width="100" height="30" fill="#FFF" stroke="#BDBDBD" rx="3"/>
  <text x="210" y="384" text-anchor="middle" font-size="9">DOCUMENTS</text>

  <rect x="270" y="365" width="135" height="30" fill="#FFF" stroke="#BDBDBD" rx="3"/>
  <text x="337" y="384" text-anchor="middle" font-size="9">RISK_ASSESSMENTS</text>

  <rect x="415" y="365" width="145" height="30" fill="#FFF" stroke="#BDBDBD" rx="3"/>
  <text x="487" y="384" text-anchor="middle" font-size="9">MAINTENANCE_RECORDS</text>

  <rect x="45" y="405" width="585" height="20" fill="#E8EAF6" rx="3"/>
  <text x="337" y="419" text-anchor="middle" font-size="9" fill="#3F51B5">FIBO Ontology Tags: Entity Class | Property Type | Financial Instrument | Temporal | Party Role</text>

  <rect x="670" y="295" width="200" height="140" fill="#FCE4EC" stroke="#F48FB1" stroke-width="1.5" rx="4"/>
  <text x="770" y="315" text-anchor="middle" font-size="12" font-weight="bold" fill="#880E4F">ML LAYER</text>

  <rect x="685" y="325" width="170" height="25" fill="#FFF" stroke="#F48FB1" rx="3"/>
  <text x="770" y="342" text-anchor="middle" font-size="9">Lease Renewal Predictor</text>

  <rect x="685" y="355" width="170" height="25" fill="#FFF" stroke="#F48FB1" rx="3"/>
  <text x="770" y="372" text-anchor="middle" font-size="9">Property Risk Classifier</text>

  <rect x="685" y="385" width="170" height="25" fill="#FFF" stroke="#F48FB1" rx="3"/>
  <text x="770" y="402" text-anchor="middle" font-size="9">NOI Forecaster (UDF)</text>

  <rect x="685" y="415" width="170" height="12" fill="#FCE4EC" rx="2"/>
  <text x="770" y="424" text-anchor="middle" font-size="8" fill="#880E4F">Snowflake ML Registry</text>

  <rect x="30" y="460" width="840" height="50" fill="#ECEFF1" stroke="#90A4AE" stroke-width="1" rx="4"/>
  <text x="450" y="490" text-anchor="middle" font-size="11" fill="#37474F">
    Snowflake Platform: Cortex AI | Warehouses | Stages | Security | Governance
  </text>

  <rect x="30" y="530" width="250" height="55" fill="#E0F7FA" stroke="#00ACC1" stroke-width="1.5" rx="4"/>
  <text x="155" y="550" text-anchor="middle" font-size="10" font-weight="bold" fill="#006064">500 Properties</text>
  <text x="155" y="565" text-anchor="middle" font-size="9" fill="#555">20 Cities | 6 Property Types</text>
  <text x="155" y="578" text-anchor="middle" font-size="9" fill="#555">10 Industry Sectors</text>

  <rect x="310" y="530" width="250" height="55" fill="#E0F7FA" stroke="#00ACC1" stroke-width="1.5" rx="4"/>
  <text x="435" y="550" text-anchor="middle" font-size="10" font-weight="bold" fill="#006064">20 Tenants | 500 Leases</text>
  <text x="435" y="565" text-anchor="middle" font-size="9" fill="#555">NNN/NN/Modified Gross</text>
  <text x="435" y="578" text-anchor="middle" font-size="9" fill="#555">Investment Grade + High Yield</text>

  <rect x="590" y="530" width="280" height="55" fill="#E0F7FA" stroke="#00ACC1" stroke-width="1.5" rx="4"/>
  <text x="730" y="550" text-anchor="middle" font-size="10" font-weight="bold" fill="#006064">3,000 Financial Records</text>
  <text x="730" y="565" text-anchor="middle" font-size="9" fill="#555">6 Fiscal Years (2020-2025)</text>
  <text x="730" y="578" text-anchor="middle" font-size="9" fill="#555">10 Documents | 1,400 Market Days</text>
</svg>
