<svg xmlns="http://www.w3.org/2000/svg" viewBox="0 0 1100 750" font-family="Segoe UI, Arial, sans-serif">
  <defs>
    <linearGradient id="headerBar" x1="0%" y1="0%" x2="100%" y2="0%">
      <stop offset="0%" style="stop-color:#29B5E8"/>
      <stop offset="100%" style="stop-color:#0EA5E9"/>
    </linearGradient>
    <linearGradient id="agentGrad" x1="0%" y1="0%" x2="100%" y2="100%">
      <stop offset="0%" style="stop-color:#7C3AED"/>
      <stop offset="100%" style="stop-color:#4F46E5"/>
    </linearGradient>
    <linearGradient id="toolGreen" x1="0%" y1="0%" x2="0%" y2="100%">
      <stop offset="0%" style="stop-color:#059669"/>
      <stop offset="100%" style="stop-color:#047857"/>
    </linearGradient>
    <linearGradient id="toolBlue" x1="0%" y1="0%" x2="0%" y2="100%">
      <stop offset="0%" style="stop-color:#2563EB"/>
      <stop offset="100%" style="stop-color:#1D4ED8"/>
    </linearGradient>
    <linearGradient id="toolOrange" x1="0%" y1="0%" x2="0%" y2="100%">
      <stop offset="0%" style="stop-color:#EA580C"/>
      <stop offset="100%" style="stop-color:#C2410C"/>
    </linearGradient>
    <linearGradient id="toolPurple" x1="0%" y1="0%" x2="0%" y2="100%">
      <stop offset="0%" style="stop-color:#9333EA"/>
      <stop offset="100%" style="stop-color:#7C3AED"/>
    </linearGradient>
    <linearGradient id="mlGrad" x1="0%" y1="0%" x2="100%" y2="0%">
      <stop offset="0%" style="stop-color:#DB2777"/>
      <stop offset="100%" style="stop-color:#BE185D"/>
    </linearGradient>
    <filter id="shadow" x="-4%" y="-4%" width="108%" height="116%">
      <feDropShadow dx="0" dy="3" stdDeviation="5" flood-color="#000" flood-opacity="0.12"/>
    </filter>
    <filter id="shadowSm" x="-4%" y="-4%" width="108%" height="116%">
      <feDropShadow dx="0" dy="2" stdDeviation="3" flood-color="#000" flood-opacity="0.1"/>
    </filter>
    <filter id="glow" x="-10%" y="-10%" width="120%" height="120%">
      <feDropShadow dx="0" dy="4" stdDeviation="8" flood-color="#7C3AED" flood-opacity="0.25"/>
    </filter>
    <marker id="arrowGray" markerWidth="8" markerHeight="6" refX="8" refY="3" orient="auto">
      <polygon points="0 0, 8 3, 0 6" fill="#9CA3AF"/>
    </marker>
    <marker id="arrowGreen" markerWidth="8" markerHeight="6" refX="8" refY="3" orient="auto">
      <polygon points="0 0, 8 3, 0 6" fill="#10B981"/>
    </marker>
    <marker id="arrowBlue" markerWidth="8" markerHeight="6" refX="8" refY="3" orient="auto">
      <polygon points="0 0, 8 3, 0 6" fill="#3B82F6"/>
    </marker>
    <marker id="arrowOrange" markerWidth="8" markerHeight="6" refX="8" refY="3" orient="auto">
      <polygon points="0 0, 8 3, 0 6" fill="#F97316"/>
    </marker>
  </defs>

  <rect width="1100" height="750" fill="#FFFFFF" rx="12"/>

  <rect x="30" y="15" width="1040" height="55" fill="url(#headerBar)" rx="8" filter="url(#shadow)"/>
  <text x="550" y="50" text-anchor="middle" fill="white" font-size="22" font-weight="bold">Realty Income REIT Advisor - System Architecture</text>
  <text x="1040" y="48" text-anchor="end" fill="rgba(255,255,255,0.7)" font-size="10">v1.0 | Snowflake Cortex</text>

  <rect x="80" y="90" width="120" height="40" fill="#FFFFFF" stroke="#D1D5DB" stroke-width="1.5" rx="6" filter="url(#shadowSm)"/>
  <text x="140" y="108" text-anchor="middle" fill="#374151" font-size="10">User Query</text>
  <text x="140" y="122" text-anchor="middle" fill="#6B7280" font-size="8">(Natural Language)</text>

  <line x1="200" y1="110" x2="350" y2="110" stroke="#9CA3AF" stroke-width="1.5" marker-end="url(#arrowGray)"/>

  <rect x="350" y="82" width="400" height="56" fill="url(#agentGrad)" rx="10" filter="url(#glow)"/>
  <text x="550" y="106" text-anchor="middle" fill="white" font-size="16" font-weight="bold">CORTEX AGENT</text>
  <text x="550" y="126" text-anchor="middle" fill="rgba(255,255,255,0.8)" font-size="11">REALTY_INCOME.AGENT.REIT_ADVISOR</text>

  <line x1="750" y1="110" x2="900" y2="110" stroke="#9CA3AF" stroke-width="1.5" marker-end="url(#arrowGray)"/>
  <rect x="900" y="90" width="120" height="40" fill="#FFFFFF" stroke="#D1D5DB" stroke-width="1.5" rx="6" filter="url(#shadowSm)"/>
  <text x="960" y="108" text-anchor="middle" fill="#374151" font-size="10">Response</text>
  <text x="960" y="122" text-anchor="middle" fill="#6B7280" font-size="8">(Structured + NL)</text>

  <text x="550" y="165" text-anchor="middle" fill="#6B7280" font-size="10" font-style="italic">Intelligent Tool Routing &amp; Orchestration</text>

  <line x1="550" y1="138" x2="170" y2="195" stroke="#10B981" stroke-width="1.5" stroke-dasharray="5,3" marker-end="url(#arrowGreen)"/>
  <line x1="550" y1="138" x2="430" y2="195" stroke="#3B82F6" stroke-width="1.5" stroke-dasharray="5,3" marker-end="url(#arrowBlue)"/>
  <line x1="550" y1="138" x2="690" y2="195" stroke="#F97316" stroke-width="1.5" stroke-dasharray="5,3" marker-end="url(#arrowOrange)"/>
  <line x1="550" y1="138" x2="940" y2="195" stroke="#A855F7" stroke-width="1.5" stroke-dasharray="5,3"/>

  <rect x="50" y="195" width="240" height="80" fill="#ECFDF5" stroke="#059669" stroke-width="2" rx="8" filter="url(#shadow)"/>
  <rect x="50" y="195" width="240" height="24" fill="url(#toolGreen)" rx="8"/>
  <rect x="50" y="211" width="240" height="8" fill="url(#toolGreen)"/>
  <text x="170" y="213" text-anchor="middle" fill="white" font-size="11" font-weight="bold">Portfolio Analytics</text>
  <text x="170" y="240" text-anchor="middle" fill="#065F46" font-size="10">Cortex Analyst (Text-to-SQL)</text>
  <text x="170" y="257" text-anchor="middle" fill="#047857" font-size="9">Properties | Tenants | Leases</text>
  <text x="170" y="270" text-anchor="middle" fill="#047857" font-size="9">Financials | Risk</text>

  <rect x="310" y="195" width="240" height="80" fill="#EFF6FF" stroke="#2563EB" stroke-width="2" rx="8" filter="url(#shadow)"/>
  <rect x="310" y="195" width="240" height="24" fill="url(#toolBlue)" rx="8"/>
  <rect x="310" y="211" width="240" height="8" fill="url(#toolBlue)"/>
  <text x="430" y="213" text-anchor="middle" fill="white" font-size="11" font-weight="bold">Market Performance</text>
  <text x="430" y="240" text-anchor="middle" fill="#1E40AF" font-size="10">Cortex Analyst (Text-to-SQL)</text>
  <text x="430" y="257" text-anchor="middle" fill="#1D4ED8" font-size="9">Stock Price | Dividends | KPIs</text>
  <text x="430" y="270" text-anchor="middle" fill="#1D4ED8" font-size="9">Debt Ratios | Returns</text>

  <rect x="570" y="195" width="240" height="80" fill="#FFF7ED" stroke="#EA580C" stroke-width="2" rx="8" filter="url(#shadow)"/>
  <rect x="570" y="195" width="240" height="24" fill="url(#toolOrange)" rx="8"/>
  <rect x="570" y="211" width="240" height="8" fill="url(#toolOrange)"/>
  <text x="690" y="213" text-anchor="middle" fill="white" font-size="11" font-weight="bold">Document Search</text>
  <text x="690" y="240" text-anchor="middle" fill="#9A3412" font-size="10">Cortex Search (RAG)</text>
  <text x="690" y="257" text-anchor="middle" fill="#C2410C" font-size="9">Earnings Calls | SEC Filings</text>
  <text x="690" y="270" text-anchor="middle" fill="#C2410C" font-size="9">Knowledge Base | Research</text>

  <rect x="830" y="195" width="200" height="80" fill="#FAF5FF" stroke="#9333EA" stroke-width="2" rx="8" filter="url(#shadow)"/>
  <rect x="830" y="195" width="200" height="24" fill="url(#toolPurple)" rx="8"/>
  <rect x="830" y="211" width="200" height="8" fill="url(#toolPurple)"/>
  <text x="930" y="213" text-anchor="middle" fill="white" font-size="11" font-weight="bold">Data to Chart</text>
  <text x="930" y="240" text-anchor="middle" fill="#6B21A8" font-size="10">Visualization Engine</text>
  <text x="930" y="257" text-anchor="middle" fill="#7C3AED" font-size="9">Bar | Line | Scatter</text>
  <text x="930" y="270" text-anchor="middle" fill="#7C3AED" font-size="9">Pie | Area | Heatmap</text>

  <text x="550" y="310" text-anchor="middle" fill="#374151" font-size="11" font-weight="bold">SEMANTIC &amp; SEARCH LAYER</text>
  <line x1="100" y1="318" x2="1000" y2="318" stroke="#E5E7EB" stroke-width="1"/>

  <line x1="170" y1="275" x2="170" y2="335" stroke="#10B981" stroke-width="1.5" stroke-dasharray="3,3"/>
  <line x1="430" y1="275" x2="430" y2="335" stroke="#3B82F6" stroke-width="1.5" stroke-dasharray="3,3"/>
  <line x1="690" y1="275" x2="690" y2="335" stroke="#F97316" stroke-width="1.5" stroke-dasharray="3,3"/>

  <rect x="60" y="335" width="220" height="55" fill="#FFFFFF" stroke="#059669" stroke-width="1.5" rx="6" filter="url(#shadowSm)"/>
  <text x="170" y="358" text-anchor="middle" fill="#059669" font-size="10" font-weight="bold">REIT_PORTFOLIO_ANALYSIS</text>
  <text x="170" y="375" text-anchor="middle" fill="#4B5563" font-size="9">5 Tables | 20+ Metrics</text>
  <text x="170" y="385" text-anchor="middle" fill="#6B7280" font-size="8">Dimensions | Facts | Relationships</text>

  <rect x="320" y="335" width="220" height="55" fill="#FFFFFF" stroke="#2563EB" stroke-width="1.5" rx="6" filter="url(#shadowSm)"/>
  <text x="430" y="358" text-anchor="middle" fill="#2563EB" font-size="10" font-weight="bold">REIT_MARKET_PERFORMANCE</text>
  <text x="430" y="375" text-anchor="middle" fill="#4B5563" font-size="9">2 Tables | 14 Metrics</text>
  <text x="430" y="385" text-anchor="middle" fill="#6B7280" font-size="8">Portfolio KPIs | Market Data</text>

  <rect x="580" y="335" width="220" height="55" fill="#FFFFFF" stroke="#EA580C" stroke-width="1.5" rx="6" filter="url(#shadowSm)"/>
  <text x="690" y="358" text-anchor="middle" fill="#EA580C" font-size="10" font-weight="bold">REIT_DOCUMENT_SEARCH</text>
  <text x="690" y="375" text-anchor="middle" fill="#4B5563" font-size="9">18 Chunks | 1hr Refresh</text>
  <text x="690" y="385" text-anchor="middle" fill="#6B7280" font-size="8">Cortex Search Service</text>

  <text x="550" y="420" text-anchor="middle" fill="#374151" font-size="11" font-weight="bold">DATA LAYER (RAW SCHEMA)</text>
  <line x1="100" y1="428" x2="1000" y2="428" stroke="#E5E7EB" stroke-width="1"/>

  <rect x="50" y="440" width="700" height="100" fill="#F9FAFB" stroke="#D1D5DB" stroke-width="1.5" rx="8" filter="url(#shadow)"/>

  <rect x="65" y="455" width="110" height="32" fill="#FFFFFF" stroke="#D1D5DB" rx="4" filter="url(#shadowSm)"/>
  <text x="120" y="475" text-anchor="middle" fill="#374151" font-size="9">PROPERTIES</text>

  <rect x="185" y="455" width="90" height="32" fill="#FFFFFF" stroke="#D1D5DB" rx="4" filter="url(#shadowSm)"/>
  <text x="230" y="475" text-anchor="middle" fill="#374151" font-size="9">TENANTS</text>

  <rect x="285" y="455" width="80" height="32" fill="#FFFFFF" stroke="#D1D5DB" rx="4" filter="url(#shadowSm)"/>
  <text x="325" y="475" text-anchor="middle" fill="#374151" font-size="9">LEASES</text>

  <rect x="375" y="455" width="140" height="32" fill="#FFFFFF" stroke="#D1D5DB" rx="4" filter="url(#shadowSm)"/>
  <text x="445" y="475" text-anchor="middle" fill="#374151" font-size="9">FINANCIAL_METRICS</text>

  <rect x="525" y="455" width="145" height="32" fill="#FFFFFF" stroke="#D1D5DB" rx="4" filter="url(#shadowSm)"/>
  <text x="597" y="475" text-anchor="middle" fill="#374151" font-size="9">PORTFOLIO_SUMMARY</text>

  <rect x="65" y="497" width="110" height="32" fill="#FFFFFF" stroke="#D1D5DB" rx="4" filter="url(#shadowSm)"/>
  <text x="120" y="517" text-anchor="middle" fill="#374151" font-size="9">MARKET_DATA</text>

  <rect x="185" y="497" width="100" height="32" fill="#FFFFFF" stroke="#D1D5DB" rx="4" filter="url(#shadowSm)"/>
  <text x="235" y="517" text-anchor="middle" fill="#374151" font-size="9">DOCUMENTS</text>

  <rect x="295" y="497" width="140" height="32" fill="#FFFFFF" stroke="#D1D5DB" rx="4" filter="url(#shadowSm)"/>
  <text x="365" y="517" text-anchor="middle" fill="#374151" font-size="9">RISK_ASSESSMENTS</text>

  <rect x="445" y="497" width="155" height="32" fill="#FFFFFF" stroke="#D1D5DB" rx="4" filter="url(#shadowSm)"/>
  <text x="522" y="517" text-anchor="middle" fill="#374151" font-size="9">MAINTENANCE_RECORDS</text>

  <rect x="770" y="440" width="260" height="100" fill="#FDF2F8" stroke="#DB2777" stroke-width="1.5" rx="8" filter="url(#shadow)"/>
  <rect x="770" y="440" width="260" height="22" fill="url(#mlGrad)" rx="8"/>
  <rect x="770" y="454" width="260" height="8" fill="url(#mlGrad)"/>
  <text x="900" y="457" text-anchor="middle" fill="white" font-size="10" font-weight="bold">ML LAYER (Registry + UDFs)</text>

  <text x="790" y="480" fill="#9D174D" font-size="9">Lease Renewal Predictor (v1)</text>
  <text x="790" y="495" fill="#9D174D" font-size="9">Property Risk Classifier (v1)</text>
  <text x="790" y="510" fill="#9D174D" font-size="9">NOI Forecaster | Property Scorer</text>
  <text x="790" y="527" fill="#6B7280" font-size="8">GradientBoosting | SQL UDFs</text>

  <text x="550" y="575" text-anchor="middle" fill="#374151" font-size="11" font-weight="bold">GOVERNANCE &amp; PLATFORM</text>
  <line x1="100" y1="583" x2="1000" y2="583" stroke="#E5E7EB" stroke-width="1"/>

  <rect x="50" y="595" width="480" height="45" fill="#FFFFFF" stroke="#6366F1" stroke-width="1.5" rx="6" filter="url(#shadow)"/>
  <text x="290" y="617" text-anchor="middle" fill="#4338CA" font-size="10" font-weight="bold">FIBO Ontology Tags</text>
  <text x="290" y="633" text-anchor="middle" fill="#6B7280" font-size="9">Entity Class | Property Type | Financial Instrument | Temporal Entity | Party Role</text>

  <rect x="550" y="595" width="480" height="45" fill="#FFFFFF" stroke="#9CA3AF" stroke-width="1.5" rx="6" filter="url(#shadow)"/>
  <text x="790" y="617" text-anchor="middle" fill="#374151" font-size="10" font-weight="bold">Snowflake Platform</text>
  <text x="790" y="633" text-anchor="middle" fill="#6B7280" font-size="9">Cortex AI | REALTY_WH (Medium) | Stages | RBAC | Cross-Region Enabled</text>

  <rect x="50" y="660" width="200" height="70" fill="#FFFFFF" stroke="#D1D5DB" rx="6" filter="url(#shadow)"/>
  <text x="150" y="682" text-anchor="middle" fill="#374151" font-size="9" font-weight="bold">DATA VOLUME</text>
  <text x="150" y="698" text-anchor="middle" fill="#6B7280" font-size="9">500 Properties | 20 Tenants</text>
  <text x="150" y="712" text-anchor="middle" fill="#6B7280" font-size="9">3,000 Financial Records</text>
  <text x="150" y="724" text-anchor="middle" fill="#6B7280" font-size="8">1,400 Market Days | 10 Docs</text>

  <rect x="270" y="660" width="200" height="70" fill="#FFFFFF" stroke="#D1D5DB" rx="6" filter="url(#shadow)"/>
  <text x="370" y="682" text-anchor="middle" fill="#374151" font-size="9" font-weight="bold">SCHEMAS</text>
  <text x="370" y="698" text-anchor="middle" fill="#059669" font-size="9">RAW - Source tables</text>
  <text x="370" y="712" text-anchor="middle" fill="#2563EB" font-size="9">ANALYTICS - Views + SVs</text>
  <text x="370" y="724" text-anchor="middle" fill="#DB2777" font-size="8">ML - Models | AGENT - Agent</text>

  <rect x="490" y="660" width="200" height="70" fill="#FFFFFF" stroke="#D1D5DB" rx="6" filter="url(#shadow)"/>
  <text x="590" y="682" text-anchor="middle" fill="#374151" font-size="9" font-weight="bold">AGENT CONFIG</text>
  <text x="590" y="698" text-anchor="middle" fill="#6B7280" font-size="9">Budget: 60s / 32K tokens</text>
  <text x="590" y="712" text-anchor="middle" fill="#6B7280" font-size="9">Model: Auto-selected</text>
  <text x="590" y="724" text-anchor="middle" fill="#6B7280" font-size="8">4 Tools | Multi-turn</text>

  <rect x="710" y="660" width="200" height="70" fill="#FFFFFF" stroke="#D1D5DB" rx="6" filter="url(#shadow)"/>
  <text x="810" y="682" text-anchor="middle" fill="#374151" font-size="9" font-weight="bold">COVERAGE</text>
  <text x="810" y="698" text-anchor="middle" fill="#6B7280" font-size="9">50 US States + Europe</text>
  <text x="810" y="712" text-anchor="middle" fill="#6B7280" font-size="9">FY2020-2025 (6 years)</text>
  <text x="810" y="724" text-anchor="middle" fill="#6B7280" font-size="8">89 Industries | 10 Sectors</text>
</svg>
